<?xml version="1.0" standalone="no"?>
<!DOCTYPE svg PUBLIC "-//W3C//DTD SVG 20010904//EN"
 "http://www.w3.org/TR/2001/REC-SVG-20010904/DTD/svg10.dtd">
<svg version="1.0" xmlns="http://www.w3.org/2000/svg"
 width="840.000000pt" height="840.000000pt" viewBox="0 0 840.000000 840.000000"
 preserveAspectRatio="xMidYMid meet">
<metadata>
Created by potrace 1.14, written by Peter Selinger 2001-2017
</metadata>
<g transform="translate(0.000000,840.000000) scale(0.100000,-0.100000)"
fill="#000000" stroke="none">
<path d="M3857 8380 c-70 -22 -119 -53 -175 -111 -89 -90 -132 -227 -137 -434
-4 -139 1 -183 34 -327 16 -70 84 -255 120 -326 l32 -63 -28 7 c-47 10 -54 14
-48 24 9 14 -32 100 -63 133 -34 36 -104 72 -157 81 -36 7 -44 14 -73 65 -82
143 -235 253 -310 222 -50 -21 -66 -63 -65 -171 0 -92 23 -211 45 -237 7 -9 6
-18 -3 -30 -10 -11 -14 -44 -14 -107 1 -92 21 -163 60 -206 12 -13 11 -24 -7
-75 -30 -88 -22 -201 21 -284 l31 -61 -24 -48 c-14 -26 -30 -68 -36 -94 -7
-26 -21 -53 -34 -62 -11 -9 -75 -54 -142 -101 -207 -146 -325 -246 -489 -410
-115 -116 -148 -151 -205 -225 -19 -25 -37 -47 -41 -50 -3 -3 -41 -56 -83
-119 -77 -116 -179 -306 -211 -396 -10 -27 -22 -54 -25 -60 -10 -14 -66 -187
-84 -261 -21 -82 -44 -205 -53 -279 -14 -118 -8 -388 11 -480 38 -185 95 -322
198 -476 186 -280 501 -476 828 -515 30 -3 56 -8 58 -9 2 -2 -13 -55 -32 -119
-36 -119 -100 -395 -110 -476 -3 -25 -8 -54 -10 -65 -2 -11 -7 -47 -10 -80 -4
-33 -9 -78 -11 -100 -3 -22 -7 -62 -10 -90 -2 -27 -8 -84 -12 -125 -5 -41 -8
-177 -8 -303 0 -161 -3 -227 -11 -227 -6 0 -51 7 -100 16 -49 8 -107 17 -129
20 -22 3 -53 7 -70 10 -75 14 -413 13 -494 -1 -307 -52 -490 -186 -546 -400
-42 -163 6 -325 134 -455 134 -136 294 -189 553 -184 l124 2 17 -43 c30 -71
115 -156 199 -198 112 -57 220 -76 402 -73 83 2 158 6 166 9 8 3 34 8 58 11
98 12 300 69 407 114 22 9 101 47 176 84 300 146 568 336 816 577 40 39 51 43
101 47 190 14 376 82 528 195 31 22 57 39 59 37 2 -1 23 -30 47 -63 57 -77
154 -176 243 -246 240 -190 566 -321 886 -355 132 -14 366 -6 449 16 19 5 46
11 60 13 92 17 236 72 316 123 178 111 248 321 170 505 -22 54 -87 131 -145
173 -136 100 -311 123 -626 80 -105 -14 -177 -18 -310 -17 -132 0 -203 7 -335
29 -48 8 -223 64 -235 75 -5 5 -15 9 -21 9 -10 0 -113 55 -141 75 -1 0 20 56
47 124 47 115 101 296 115 386 4 22 8 47 10 55 2 8 4 23 4 33 1 15 4 16 24 6
12 -7 24 -15 27 -19 11 -14 191 -112 275 -149 99 -44 240 -87 319 -99 28 -4
105 -7 171 -6 155 1 243 26 315 91 66 59 90 122 85 223 -3 78 -38 197 -72 248
-10 15 -25 41 -33 57 -27 57 -221 237 -346 321 -165 111 -287 169 -489 234
-55 17 -104 35 -108 39 -6 6 20 208 29 219 1 2 28 6 61 8 157 13 303 148 317
293 4 40 -17 145 -38 193 -7 16 -3 17 38 14 269 -23 465 293 346 556 -24 52
-25 72 -5 64 45 -17 194 38 250 93 184 178 180 435 -9 707 l-43 61 67 0 c108
1 218 40 291 105 36 32 87 115 101 163 39 142 -2 283 -117 402 -70 71 -134
105 -279 148 -53 16 -96 31 -96 35 0 3 31 16 68 28 81 26 208 90 272 137 154
113 231 300 183 443 -34 98 -162 194 -318 238 -79 23 -303 28 -374 9 -47 -12
-50 -12 -41 3 5 10 20 29 34 44 35 37 131 179 160 236 65 131 73 246 24 354
-42 92 -143 172 -243 193 -66 14 -174 13 -231 -2 -140 -36 -383 -183 -510
-308 -37 -37 -77 -70 -71 -59 6 10 9 25 24 109 2 17 6 102 8 190 3 141 0 171
-20 251 -40 156 -92 236 -199 306 -183 118 -408 105 -528 -32 -88 -99 -172
-324 -180 -477 -1 -24 -6 -43 -10 -43 -4 0 -8 5 -8 11 0 21 -99 209 -151 286
-123 183 -229 294 -325 340 -92 44 -206 53 -297 23z"/>
</g>
</svg>
